#!OML:ASF F:\VICON\USERDATA\INSTALL\rory3\rory3.ASF
:FULLY-SPECIFIED
:DEGREES
1256
root 4.65134 18.8093 4.81483 119.383 -77.1531 -108.656
lowerback 17.3369 1.39455 -9.49035
upperback 7.72128 -0.636223 -6.52418
thorax -1.40459 -0.72397 -1.45956
lowerneck -9.22304 10.6888 -3.24445
upperneck 18.032 15.2097 -2.85058
head 7.02787 6.64055 0.890414
rclavicle -4.13472e-014 -1.59028e-014
rhumerus -10.8104 19.1843 -77.5096
rradius 132.303
rwrist -18.9611
rhand -48.3735 0.999798
rfingers 7.12502
rthumb -21.0272 -27.8803
lclavicle -4.13472e-014 -1.59028e-014
lhumerus 24.7589 -32.8843 68.5866
lradius 41.4401
lwrist 2.43891
lhand -22.0204 24.3207
lfingers 7.12502
lthumb 4.38908 54.2552
rfemur -34.9987 22.0822 9.98635
rtibia 20.5018
rfoot 5.31198 -9.53341
rtoes -4.51556
lfemur -23.9025 7.37277 -13.1497
ltibia 34.8183
lfoot -20.5613 16.4777
ltoes 2.24151
1257
root 4.63811 18.8118 4.79711 118.709 -77.1393 -107.94
lowerback 17.3664 1.33761 -9.13304
upperback 7.76075 -0.640847 -6.4085
thorax -1.38362 -0.71835 -1.5321
lowerneck -9.31151 10.6634 -3.1496
upperneck 18.0769 15.2146 -3.09554
head 7.08667 6.62277 0.810738
rclavicle 9.54166e-015 3.18055e-015
rhumerus -10.9577 18.3259 -77.8051
rradius 132.358
rwrist -19.3274
rhand -48.6476 1.00844
rfingers 7.12502
rthumb -21.2906 -27.8421
lclavicle 9.54166e-015 3.18055e-015
lhumerus 24.9561 -32.7433 68.5533
lradius 41.8934
lwrist 2.14614
lhand -22.0314 24.9142
lfingers 7.12502
lthumb 4.37843 54.8489
rfemur -35.1792 22.1821 10.2284
rtibia 20.3732
rfoot 5.17205 -9.6804
rtoes -4.4073
lfemur -23.851 7.5687 -13.0252
ltibia 34.6474
lfoot -20.4097 16.2073
ltoes 2.49954
1258
root 4.62591 18.8142 4.77874 118.173 -77.3397 -107.303
lowerback 17.3523 1.25527 -9.00121
upperback 7.79298 -0.710302 -6.31322
thorax -1.34056 -0.749972 -1.49032
lowerneck -9.37025 10.6223 -3.26726
upperneck 18.0655 15.1947 -3.16383
head 7.09056 6.59969 0.808393
rclavicle 5.08889e-014 1.39944e-013
rhumerus -11.026 17.6373 -78.135
rradius 132.325
rwrist -19.6516
rhand -49.0062 0.857411
rfingers 7.12502
rthumb -21.635 -27.9539
lclavicle 5.08889e-014 1.39944e-013
lhumerus 25.2544 -32.6368 68.3274
lradius 42.2404
lwrist 2.15308
lhand -22.1343 25.1479
lfingers 7.12502
lthumb 4.27908 55.0846
rfemur -35.4044 22.4424 10.0761
rtibia 20.1865
rfoot 4.96853 -10.1278
rtoes -3.6628
lfemur -23.9083 7.72656 -13.1423
ltibia 34.5292
lfoot -20.184 15.9386
ltoes 2.3607
1259
root 4.61633 18.8124 4.76246 118.337 -77.7109 -107.409
lowerback 17.4214 1.22585 -9.04854
upperback 7.81254 -0.762773 -6.28837
thorax -1.35221 -0.777221 -1.4283
lowerneck -9.36346 10.5939 -3.30319
upperneck 18.0147 15.1843 -3.29789
head 7.08209 6.58383 0.770107
rclavicle 2.06736e-014 9.54166e-014
rhumerus -10.9111 17.2001 -78.3477
rradius 132.259
rwrist -19.8919
rhand -49.5741 -0.16426
rfingers 7.12502
rthumb -22.1803 -28.9118
lclavicle 2.06736e-014 9.54166e-014
lhumerus 25.5827 -32.5127 68.0394
lradius 42.5906
lwrist 2.03463
lhand -22.03 25.685
lfingers 7.12502
lthumb 4.3798 55.6197
rfemur -35.5724 22.4689 9.85496
rtibia 19.9832
rfoot 5.05423 -10.3749
rtoes -3.2954
lfemur -23.9406 7.83406 -13.51
ltibia 34.442
lfoot -20.0368 15.7901
ltoes 2.81938
1260
root 4.60376 18.8105 4.74548 118.583 -78.1312 -107.586
lowerback 17.4507 1.20697 -9.16121
upperback 7.86619 -0.799837 -6.20056
thorax -1.30408 -0.801575 -1.26605
lowerneck -9.4741 10.5398 -3.56445
upperneck 17.9562 15.1684 -3.34585
head 7.06746 6.55783 0.796189
rclavicle 3.18055e-014 4.13472e-014
rhumerus -10.6492 16.8046 -78.4662
rradius 132.058
rwrist -20.0506
rhand -50.161 -0.490201
rfingers 7.12502
rthumb -22.7437 -29.1697
lclavicle 3.18055e-014 4.13472e-014
lhumerus 26.0232 -32.2401 67.8907
lradius 42.7936
lwrist 1.67552
lhand -22.0029 26.2179
lfingers 7.12502
lthumb 4.40596 56.1521
rfemur -35.7486 22.1143 9.87436
rtibia 19.878
rfoot 5.66934 -10.1005
rtoes -5.23418
lfemur -23.9568 7.86564 -13.9185
ltibia 34.3344
lfoot -20.0131 15.6377
ltoes 3.14595
1261
root 4.59283 18.808 4.73023 118.175 -78.4235 -107.066
lowerback 17.4909 1.12327 -9.05553
upperback 7.93946 -0.878045 -6.0449
thorax -1.24291 -0.841089 -1.14448
lowerneck -9.81205 10.477 -3.97438
upperneck 18.0968 15.1824 -3.33817
head 7.14181 6.52448 0.883027
rclavicle -1.90833e-014 3.81667e-014
rhumerus -10.2722 16.3791 -78.7335
rradius 131.723
rwrist -20.2228
rhand -50.6223 -0.854049
rfingers 7.12502
rthumb -23.1863 -29.4785
lclavicle -1.90833e-014 3.81667e-014
lhumerus 26.5079 -31.8073 67.7813
lradius 42.8456
lwrist 1.25358
lhand -21.8593 26.5208
lfingers 7.12502
lthumb 4.54466 56.4521
rfemur -35.9641 21.7008 10.0568
rtibia 19.8276
rfoot 6.38746 -9.60665
rtoes -7.5548
lfemur -24.0437 7.9515 -14.1524
ltibia 34.2449
lfoot -19.7827 15.444
ltoes 2.28401
1262
root 4.58282 18.8118 4.71413 117.197 -78.7068 -105.928
lowerback 17.497 0.974972 -8.86187
upperback 7.98803 -1.01993 -5.89989
thorax -1.19027 -0.907199 -1.07125
lowerneck -10.0035 10.4589 -4.17378
upperneck 18.2515 15.2353 -3.46025
head 7.22238 6.5112 0.895558
rclavicle 7.95139e-015 5.08889e-014
rhumerus -9.87124 15.9896 -79.1026
rradius 131.378
rwrist -20.6423
rhand -50.7861 -0.962011
rfingers 7.12502
rthumb -23.3434 -29.5666
lclavicle 7.95139e-015 5.08889e-014
lhumerus 26.89 -31.3668 67.6032
lradius 42.9164
lwrist 0.924382
lhand -21.8363 26.8676
lfingers 7.12502
lthumb 4.56683 56.7984
rfemur -36.3557 22.4185 9.32493
rtibia 19.8093
rfoot 5.4019 -11.339
rtoes -1.99947
lfemur -24.2043 7.9908 -14.3393
ltibia 34.1618
lfoot -19.4807 15.2497
ltoes 1.40751
